<svg width="39" height="39" viewBox="0 0 39 39" fill="none" xmlns="http://www.w3.org/2000/svg">
<path d="M26.8125 4.875V19.5L21.9375 15.8438L17.0625 19.5V4.875" stroke="#1C2D4F" stroke-width="2" stroke-linecap="round" stroke-linejoin="round"/>
<path d="M7.31247 32.9062C7.31046 32.4255 7.40365 31.9492 7.58668 31.5047C7.76971 31.0601 8.03895 30.6563 8.37887 30.3164C8.71878 29.9765 9.12265 29.7072 9.56715 29.5242C10.0117 29.3412 10.488 29.248 10.9687 29.25H31.6875V4.87497H10.9687C10.488 4.87296 10.0117 4.96615 9.56715 5.14918C9.12265 5.33221 8.71878 5.60145 8.37887 5.94137C8.03895 6.28128 7.76971 6.68515 7.58668 7.12965C7.40365 7.57416 7.31046 8.05051 7.31247 8.53122V32.9062Z" stroke="#1C2D4F" stroke-width="2" stroke-linecap="round" stroke-linejoin="round"/>
<path d="M7.3125 32.9062V34.125H29.25" stroke="#1C2D4F" stroke-width="2" stroke-linecap="round" stroke-linejoin="round"/>
</svg>
