<svg width="18" height="18" viewBox="0 0 18 18" fill="none" xmlns="http://www.w3.org/2000/svg">
<path d="M9 11.3906C10.3203 11.3906 11.3906 10.3203 11.3906 9C11.3906 7.67969 10.3203 6.60938 9 6.60938C7.67969 6.60938 6.60938 7.67969 6.60938 9C6.60938 10.3203 7.67969 11.3906 9 11.3906Z" stroke="#1C2D4F" stroke-linecap="round" stroke-linejoin="round"/>
<path d="M12.375 2.25H5.625C3.76104 2.25 2.25 3.76104 2.25 5.625V12.375C2.25 14.239 3.76104 15.75 5.625 15.75H12.375C14.239 15.75 15.75 14.239 15.75 12.375V5.625C15.75 3.76104 14.239 2.25 12.375 2.25Z" stroke="#1C2D4F" stroke-linecap="round" stroke-linejoin="round"/>
<path d="M12.6562 6.46875C13.2776 6.46875 13.7812 5.96507 13.7812 5.34375C13.7812 4.72243 13.2776 4.21875 12.6562 4.21875C12.0349 4.21875 11.5312 4.72243 11.5312 5.34375C11.5312 5.96507 12.0349 6.46875 12.6562 6.46875Z" fill="#49536E"/>
</svg>
