<svg width="17" height="16" viewBox="0 0 17 16" fill="none" xmlns="http://www.w3.org/2000/svg">
<path d="M8.6968 5.81816C8.6968 4.56816 9.83553 3.52839 11.1897 3.54543C11.6639 3.55049 12.1265 3.68186 12.5218 3.92377C12.9171 4.16568 13.2282 4.50782 13.4179 4.90907H15.5907L13.6026 6.7443C13.4743 8.5878 12.5902 10.317 11.1301 11.5804C9.67001 12.8437 7.7435 13.5463 5.74225 13.5454C3.77256 13.5454 3.28013 12.8636 3.28013 12.8636C3.28013 12.8636 5.24983 12.1818 6.23468 10.8182C6.23468 10.8182 2.29528 8.99998 3.28013 3.99998C3.28013 3.99998 5.74225 6.27271 8.6968 6.72725V5.81816Z" stroke="#1C2D4F" stroke-linecap="round" stroke-linejoin="round"/>
</svg>
